<?xml version="1.0" encoding="utf-8"?>
<!-- Svg Vector Icons : http://www.onlinewebfonts.com/icon -->
<!DOCTYPE svg PUBLIC "-//W3C//DTD SVG 1.1//EN" "http://www.w3.org/Graphics/SVG/1.1/DTD/svg11.dtd">
<svg version="1.1" xmlns="http://www.w3.org/2000/svg" xmlns:xlink="http://www.w3.org/1999/xlink" x="0px" y="0px" viewBox="0 0 256 256" enable-background="new 0 0 256 256" xml:space="preserve">
<metadata> Svg Vector Icons : http://www.onlinewebfonts.com/icon </metadata>
<g><g><path fill="#000000" d="M209.1,140.2l36.3,74.7c1.5,3-0.1,5.5-3.4,5.5H14c-3.4,0-4.9-2.5-3.4-5.5l36.3-74.7c0.6-1.2,2.1-2.2,3.4-2.2h31.2c1,0,2.3,0.6,2.9,1.3c2.1,2.4,4.3,4.8,6.4,7.2c2,2.2,4.1,4.5,6.1,6.8h-37c-1.3,0-2.9,1-3.4,2.2L32.4,205h191.1l-24.1-49.5c-0.6-1.2-2.1-2.2-3.4-2.2h-37c2-2.3,4.1-4.6,6.1-6.8c2.1-2.4,4.3-4.7,6.4-7.2c0.6-0.7,1.9-1.3,2.9-1.3h31.2C207,138,208.5,139,209.1,140.2z M181.4,89.1c0,40.8-34,48.4-49.9,87.6c-1.3,3.2-5.8,3.2-7.1,0c-14.4-35.4-43.4-45-49-76.5c-5.5-31,16-61.4,47.3-64.3C154.6,32.9,181.4,57.9,181.4,89.1z M156.2,89.1c0-15.6-12.6-28.2-28.2-28.2c-15.6,0-28.2,12.6-28.2,28.2c0,15.6,12.6,28.2,28.2,28.2C143.6,117.4,156.2,104.7,156.2,89.1z"/></g></g>
</svg>